<?xml version="1.0" encoding="UTF-8" standalone="no"?>
<svg width="15px" height="11px" viewBox="0 0 15 11" version="1.1" xmlns="http://www.w3.org/2000/svg" xmlns:xlink="http://www.w3.org/1999/xlink" xmlns:sketch="http://www.bohemiancoding.com/sketch/ns">
    <!-- Generator: Sketch 3.4.2 (15855) - http://www.bohemiancoding.com/sketch -->
    <title>eye</title>
    <desc>Created with Sketch.</desc>
    <defs></defs>
    <g id="sleek" stroke="none" stroke-width="1" fill="none" fill-rule="evenodd" sketch:type="MSPage">
        <g id="listedbydate-copy-2" sketch:type="MSArtboardGroup" transform="translate(-717.000000, -199.000000)" fill="#2A2A2A">
            <g id="visibility" sketch:type="MSLayerGroup" transform="translate(717.000000, 199.000000)">
                <path d="M7.5,0.666666667 C4.09090909,0.666666667 1.15909091,2.73333333 0,5.66666667 C1.15909091,8.6 4.09090909,10.6666667 7.5,10.6666667 C10.9090909,10.6666667 13.8409091,8.6 15,5.66666667 C13.8409091,2.73333333 10.9090909,0.666666667 7.5,0.666666667 L7.5,0.666666667 Z M7.5,9 C5.59090909,9 4.09090909,7.53333333 4.09090909,5.66666667 C4.09090909,3.8 5.59090909,2.33333333 7.5,2.33333333 C9.40909091,2.33333333 10.9090909,3.8 10.9090909,5.66666667 C10.9090909,7.53333333 9.40909091,9 7.5,9 L7.5,9 Z M7.5,3.66666667 C6.34090909,3.66666667 5.45454545,4.53333333 5.45454545,5.66666667 C5.45454545,6.8 6.34090909,7.66666667 7.5,7.66666667 C8.65909091,7.66666667 9.54545455,6.8 9.54545455,5.66666667 C9.54545455,4.53333333 8.65909091,3.66666667 7.5,3.66666667 L7.5,3.66666667 Z" id="eye" sketch:type="MSShapeGroup"></path>
            </g>
        </g>
    </g>
</svg>